<?xml version="1.0" encoding="utf-8"?>
<!-- Generator: Adobe Illustrator 16.0.0, SVG Export Plug-In . SVG Version: 6.00 Build 0)  -->
<!DOCTYPE svg PUBLIC "-//W3C//DTD SVG 1.1//EN" "http://www.w3.org/Graphics/SVG/1.1/DTD/svg11.dtd">
<svg version="1.1" id="Layer_3" xmlns="http://www.w3.org/2000/svg" xmlns:xlink="http://www.w3.org/1999/xlink" x="0px" y="0px"
	 width="147.113px" height="146.34px" viewBox="0 0 147.113 146.34" enable-background="new 0 0 147.113 146.34"
	 xml:space="preserve">
<rect x="70.73" y="15.827" fill-rule="evenodd" clip-rule="evenodd" fill="#223140" width="6.026" height="65.068"/>
<rect x="104.586" y="-7.169" transform="matrix(0.707 -0.7072 0.7072 0.707 -0.769 89.4709)" fill-rule="evenodd" clip-rule="evenodd" fill="#223140" width="6.025" height="105.665"/>
<rect x="36.475" y="-7.169" transform="matrix(-0.707 -0.7072 0.7072 -0.707 35.1139 105.8742)" fill-rule="evenodd" clip-rule="evenodd" fill="#223140" width="6.025" height="105.665"/>
<circle fill-rule="evenodd" clip-rule="evenodd" fill="#00BC6E" cx="73.743" cy="9" r="9"/>
<path fill-rule="evenodd" clip-rule="evenodd" fill="#009A5A" d="M68.827,13.74c0.058-4.971,4.134-8.952,9.104-8.895
	c1.557,0.018,3.016,0.429,4.283,1.14c-1.229-3.448-4.492-5.939-8.366-5.984c-4.971-0.058-9.046,3.925-9.104,8.895
	c-0.04,3.414,1.828,6.406,4.612,7.964C69.008,15.884,68.814,14.836,68.827,13.74z"/>
<path fill="#FFFFFF" d="M0.373,80.896c6.27,37.097,36.565,65.312,73.122,65.443c36.733,0.134,67.323-28.128,73.619-65.443H0.373z"/>
<path fill="#E6F2F4" d="M15.299,80.896H0c6.27,37.093,36.557,65.306,73.11,65.443c2.419,0.01,4.809-0.112,7.171-0.343
	C47.397,142.042,21.033,115.273,15.299,80.896z"/>
</svg>
