<?xml version="1.0" encoding="utf-8"?>
<!-- Generator: Adobe Illustrator 16.0.0, SVG Export Plug-In . SVG Version: 6.00 Build 0)  -->
<!DOCTYPE svg PUBLIC "-//W3C//DTD SVG 1.1//EN" "http://www.w3.org/Graphics/SVG/1.1/DTD/svg11.dtd">
<svg version="1.1" id="Layer_1" xmlns="http://www.w3.org/2000/svg" xmlns:xlink="http://www.w3.org/1999/xlink" x="0px" y="0px"
	 width="1079.383px" height="991.572px" viewBox="0 0 1079.383 991.572" enable-background="new 0 0 1079.383 991.572"
	 xml:space="preserve">
<g>
	<circle fill="#FFFFFF" cx="132.743" cy="479.473" r="3.167"/>
	<circle fill="#FFFFFF" cx="117.243" cy="430.307" r="2.667"/>
	<circle fill="#FFFFFF" cx="104.91" cy="387.307" r="2.333"/>
	<circle fill="#FFFFFF" cx="132.909" cy="334.64" r="3.333"/>
	<circle fill="#FFFFFF" cx="56.743" cy="362.14" r="2.833"/>
	<circle fill="#FFFFFF" cx="25.576" cy="369.307" r="1.333"/>
	<circle fill="#FFFFFF" cx="13.576" cy="389.307" r="2"/>
	<circle fill="#FFFFFF" cx="30.076" cy="430.806" r="3.167"/>
	<circle fill="#FFFFFF" cx="41.076" cy="426.14" r="1.5"/>
	<circle fill="#FFFFFF" cx="44.243" cy="398.307" r="1.667"/>
	<circle fill="#FFFFFF" cx="58.16" cy="492.391" r="1.417"/>
	<circle fill="#FFFFFF" cx="74.41" cy="486.14" r="1.5"/>
	<circle fill="#FFFFFF" cx="11.158" cy="494.809" r="2.417"/>
	<circle fill="#FFFFFF" cx="115.076" cy="538.14" r="2.166"/>
	<circle fill="#FFFFFF" cx="81.659" cy="476.39" r="3.083"/>
	<circle fill="#FFFFFF" cx="76.743" cy="451.473" r="3.833"/>
	<circle fill="#FFFFFF" cx="42.243" cy="525.472" r="1.167"/>
	<circle fill="#FFFFFF" cx="76.243" cy="563.139" r="1.833"/>
	<circle fill="#FFFFFF" cx="68.076" cy="578.139" r="1.833"/>
	<circle fill="#FFFFFF" cx="86.326" cy="581.556" r="1.584"/>
	<circle fill="#FFFFFF" cx="112.826" cy="585.39" r="2.25"/>
	<circle fill="#FFFFFF" cx="65.409" cy="599.806" r="3.167"/>
	<circle fill="#FFFFFF" cx="55.701" cy="605.181" r="2.458"/>
	<circle fill="#FFFFFF" cx="42.41" cy="614.806" r="2.5"/>
	<circle fill="#FFFFFF" cx="71.742" cy="645.139" r="1.833"/>
	<circle fill="#FFFFFF" cx="83.201" cy="648.514" r="1.542"/>
	<circle fill="#FFFFFF" cx="87.243" cy="644.223" r="0.917"/>
	<circle fill="#FFFFFF" cx="107.243" cy="663.639" r="2.667"/>
	<circle fill="#FFFFFF" cx="57.243" cy="677.64" r="4"/>
	<circle fill="#FFFFFF" cx="72.159" cy="675.89" r="2.25"/>
	<circle fill="#FFFFFF" cx="82.409" cy="671.473" r="2.167"/>
	<circle fill="#FFFFFF" cx="82.409" cy="717.473" r="2.167"/>
	<circle fill="#FFFFFF" cx="141.493" cy="720.056" r="2.584"/>
	<circle fill="#FFFFFF" cx="71.493" cy="755.889" r="2.917"/>
	<circle fill="#FFFFFF" cx="166.576" cy="782.64" r="2"/>
	<circle fill="#FFFFFF" cx="197.576" cy="772.306" r="3"/>
	<circle fill="#FFFFFF" cx="165.576" cy="821.64" r="2.666"/>
	<circle fill="#FFFFFF" cx="154.409" cy="823.14" r="1.5"/>
	<circle fill="#FFFFFF" cx="86.41" cy="803.14" r="1.834"/>
	<circle fill="#FFFFFF" cx="68.075" cy="711.474" r="1.833"/>
	<circle fill="#FFFFFF" cx="191.409" cy="806.807" r="1.833"/>
	<circle fill="#FFFFFF" cx="246.992" cy="805.89" r="2.75"/>
	<circle fill="#FFFFFF" cx="289.075" cy="832.473" r="3.833"/>
	<circle fill="#FFFFFF" cx="309.409" cy="844.807" r="3.833"/>
	<circle fill="#FFFFFF" cx="342.576" cy="924.974" r="3"/>
	<circle fill="#FFFFFF" cx="361.576" cy="927.641" r="2.667"/>
	<circle fill="#FFFFFF" cx="385.076" cy="919.474" r="2.5"/>
	<circle fill="#FFFFFF" cx="383.826" cy="928.89" r="1.25"/>
	<circle fill="#FFFFFF" cx="413.826" cy="918.224" r="1.25"/>
	<circle fill="#FFFFFF" cx="418.076" cy="900.64" r="3"/>
	<circle fill="#FFFFFF" cx="429.076" cy="922.64" r="3.166"/>
	<circle fill="#FFFFFF" cx="449.326" cy="923.556" r="4.083"/>
	<circle fill="#FFFFFF" cx="459.492" cy="916.891" r="2.583"/>
	<circle fill="#FFFFFF" cx="453.409" cy="967.807" r="2.167"/>
	<circle fill="#FFFFFF" cx="493.255" cy="981.654" r="3.346"/>
	<circle fill="#FFFFFF" cx="512.41" cy="899.14" r="1.5"/>
	<circle fill="#FFFFFF" cx="539.91" cy="904.974" r="1.334"/>
	<circle fill="#FFFFFF" cx="622.576" cy="909.641" r="3.333"/>
	<circle fill="#FFFFFF" cx="643.243" cy="911.974" r="2.334"/>
	<circle fill="#FFFFFF" cx="656.576" cy="911.974" r="2.334"/>
	<circle fill="#FFFFFF" cx="665.909" cy="907.307" r="2.333"/>
	<circle fill="#FFFFFF" cx="677.576" cy="911.974" r="2.334"/>
	<circle fill="#FFFFFF" cx="685.91" cy="895.307" r="2.333"/>
	<circle fill="#FFFFFF" cx="698.41" cy="861.807" r="3.833"/>
	<circle fill="#FFFFFF" cx="692.076" cy="899.14" r="1.5"/>
	<circle fill="#FFFFFF" cx="699.326" cy="904.557" r="0.917"/>
	<circle fill="#FFFFFF" cx="734.91" cy="949.641" r="3.667"/>
	<circle fill="#FFFFFF" cx="775.91" cy="874.974" r="2.666"/>
	<circle fill="#FFFFFF" cx="768.076" cy="867.14" r="1.5"/>
	<circle fill="#FFFFFF" cx="868.826" cy="657.556" r="3.75"/>
	<circle fill="#FFFFFF" cx="967.201" cy="662.181" r="4.625"/>
	<circle fill="#FFFFFF" cx="905.076" cy="669.306" r="2.5"/>
	<circle fill="#FFFFFF" cx="924.326" cy="664.056" r="2.75"/>
	<circle fill="#FFFFFF" cx="923.076" cy="689.806" r="1.5"/>
	<circle fill="#FFFFFF" cx="892.076" cy="695.806" r="2"/>
	<circle fill="#FFFFFF" cx="891.326" cy="758.556" r="1.25"/>
	<circle fill="#FFFFFF" cx="834.826" cy="726.556" r="1.75"/>
	<circle fill="#FFFFFF" cx="1012.576" cy="610.306" r="3.5"/>
	<circle fill="#FFFFFF" cx="970.889" cy="553.494" r="3.688"/>
	<circle fill="#FFFFFF" cx="972.389" cy="545.806" r="1.5"/>
	<circle fill="#FFFFFF" cx="956.076" cy="541.306" r="3"/>
	<circle fill="#FFFFFF" cx="1008.576" cy="526.806" r="4"/>
	<circle fill="#FFFFFF" cx="1028.076" cy="545.806" r="1.5"/>
	<circle fill="#FFFFFF" cx="969.201" cy="575.806" r="2"/>
	<circle fill="#FFFFFF" cx="999.076" cy="515.807" r="2.833"/>
	<circle fill="#FFFFFF" cx="946.41" cy="511.474" r="1.5"/>
	<circle fill="#FFFFFF" cx="929.41" cy="486.974" r="2.333"/>
	<circle fill="#FFFFFF" cx="954.576" cy="476.474" r="1.5"/>
	<circle fill="#FFFFFF" cx="969.297" cy="491.404" r="2.096"/>
	<circle fill="#FFFFFF" cx="975.91" cy="464.974" r="1.333"/>
	<circle fill="#FFFFFF" cx="998.41" cy="443.141" r="2.167"/>
	<circle fill="#FFFFFF" cx="1012.243" cy="468.141" r="3.167"/>
	<circle fill="#FFFFFF" cx="1055.744" cy="460.807" r="2.833"/>
	<circle fill="#FFFFFF" cx="1043.244" cy="416.641" r="2"/>
	<circle fill="#FFFFFF" cx="1066.41" cy="412.807" r="3.833"/>
	<circle fill="#FFFFFF" cx="1046.41" cy="370.808" r="3.167"/>
	<circle fill="#FFFFFF" cx="997.744" cy="375.809" r="3.167"/>
	<circle fill="#FFFFFF" cx="932.66" cy="403.558" r="3.25"/>
	<circle fill="#FFFFFF" cx="971.68" cy="402.767" r="0.792"/>
	<circle fill="#FFFFFF" cx="975.91" cy="390.975" r="1.333"/>
	<circle fill="#FFFFFF" cx="928.243" cy="385.475" r="1.167"/>
	<circle fill="#FFFFFF" cx="937.41" cy="372.309" r="1.5"/>
	<circle fill="#FFFFFF" cx="929.076" cy="335.308" r="2"/>
	<circle fill="#FFFFFF" cx="957.409" cy="318.475" r="2.833"/>
	<circle fill="#FFFFFF" cx="880.577" cy="360.308" r="3"/>
	<circle fill="#FFFFFF" cx="1018.243" cy="311.475" r="2.833"/>
	<circle fill="#FFFFFF" cx="1029.41" cy="311.475" r="2.833"/>
	<circle fill="#FFFFFF" cx="1038.744" cy="322.808" r="1.5"/>
	<circle fill="#FFFFFF" cx="1039.244" cy="335.308" r="2"/>
	<circle fill="#FFFFFF" cx="987.076" cy="265.808" r="2.5"/>
	<circle fill="#FFFFFF" cx="992.744" cy="270.475" r="2.167"/>
	<circle fill="#FFFFFF" cx="919.077" cy="257.808" r="3.167"/>
	<circle fill="#FFFFFF" cx="889.744" cy="261.475" r="1.833"/>
	<circle fill="#FFFFFF" cx="902.91" cy="283.308" r="2"/>
	<circle fill="#FFFFFF" cx="913.076" cy="300.808" r="1.167"/>
	<circle fill="#FFFFFF" cx="885.744" cy="299.808" r="2.167"/>
	<circle fill="#FFFFFF" cx="881.91" cy="279.641" r="1.667"/>
	<circle fill="#FFFFFF" cx="958.826" cy="245.558" r="1.417"/>
	<circle fill="#FFFFFF" cx="955.909" cy="228.475" r="1.5"/>
	<circle fill="#FFFFFF" cx="957.409" cy="209.475" r="1.5"/>
	<circle fill="#FFFFFF" cx="948.076" cy="212.808" r="1.833"/>
	<circle fill="#FFFFFF" cx="942.077" cy="184.808" r="2.167"/>
	<circle fill="#FFFFFF" cx="913.91" cy="195.975" r="2"/>
	<circle fill="#FFFFFF" cx="777.576" cy="175.808" r="3"/>
	<circle fill="#FFFFFF" cx="848.327" cy="153.725" r="1.417"/>
	<circle fill="#FFFFFF" cx="837.743" cy="138.808" r="1.167"/>
	<circle fill="#FFFFFF" cx="783.576" cy="153.308" r="1"/>
	<circle fill="#FFFFFF" cx="734.743" cy="119.808" r="1.167"/>
	<circle fill="#FFFFFF" cx="761.243" cy="74.308" r="3"/>
	<circle fill="#FFFFFF" cx="788.576" cy="46.641" r="4"/>
	<circle fill="#FFFFFF" cx="802.743" cy="90.808" r="1.5"/>
	<circle fill="#FFFFFF" cx="712.409" cy="82.808" r="1.833"/>
	<circle fill="#FFFFFF" cx="706.576" cy="92.308" r="3"/>
	<circle fill="#FFFFFF" cx="706.409" cy="56.808" r="2.833"/>
	<circle fill="#FFFFFF" cx="730.243" cy="62.975" r="1.333"/>
	<circle fill="#FFFFFF" cx="826.076" cy="93.808" r="1.5"/>
	<circle fill="#FFFFFF" cx="661.909" cy="32.308" r="2.333"/>
	<circle fill="#FFFFFF" cx="561.076" cy="52.141" r="3.833"/>
	<circle fill="#FFFFFF" cx="550.41" cy="46.142" r="1.833"/>
	<circle fill="#FFFFFF" cx="551.91" cy="5.475" r="1.5"/>
	<circle fill="#FFFFFF" cx="531.243" cy="65.975" r="1.667"/>
	<circle fill="#FFFFFF" cx="455.909" cy="61.975" r="2.333"/>
	<circle fill="#FFFFFF" cx="446.742" cy="79.141" r="1.833"/>
	<circle fill="#FFFFFF" cx="425.742" cy="101.809" r="2.833"/>
	<circle fill="#FFFFFF" cx="375.242" cy="112.975" r="2.667"/>
	<circle fill="#FFFFFF" cx="375.242" cy="79.975" r="2.667"/>
	<circle fill="#FFFFFF" cx="393.242" cy="43.641" r="3"/>
	<circle fill="#FFFFFF" cx="358.076" cy="34.809" r="2.5"/>
	<circle fill="#FFFFFF" cx="369.396" cy="4.488" r="2.488"/>
	<circle fill="#FFFFFF" cx="414.653" cy="6.564" r="2.077"/>
	<circle fill="#FFFFFF" cx="448.326" cy="7.058" r="1.583"/>
	<circle fill="#FFFFFF" cx="324.575" cy="25.308" r="2.333"/>
	<circle fill="#FFFFFF" cx="283.159" cy="37.725" r="2.917"/>
	<circle fill="#FFFFFF" cx="183.575" cy="133.976" r="3.333"/>
	<circle fill="#FFFFFF" cx="182.242" cy="113.642" r="2"/>
	<circle fill="#FFFFFF" cx="202.076" cy="122.476" r="1.833"/>
	<circle fill="#FFFFFF" cx="218.575" cy="113.642" r="2"/>
	<circle fill="#FFFFFF" cx="219.576" cy="105.642" r="1"/>
	<circle fill="#FFFFFF" cx="234.992" cy="49.391" r="2.75"/>
	<circle fill="#FFFFFF" cx="164.075" cy="156.143" r="1.833"/>
	<circle fill="#FFFFFF" cx="126.742" cy="175.809" r="1.833"/>
	<circle fill="#FFFFFF" cx="102.075" cy="193.809" r="3.5"/>
	<circle fill="#FFFFFF" cx="133.242" cy="188.642" r="1.667"/>
	<circle fill="#FFFFFF" cx="183.242" cy="170.309" r="1"/>
	<circle fill="#FFFFFF" cx="188.075" cy="151.142" r="1.167"/>
	<circle fill="#FFFFFF" cx="274.575" cy="138.643" r="1.333"/>
	<circle fill="#FFFFFF" cx="54.909" cy="246.643" r="2"/>
	<circle fill="#FFFFFF" cx="58.242" cy="278.643" r="3.333"/>
</g>
</svg>
